<svg width="14" height="15" viewBox="0 0 14 15" fill="none" xmlns="http://www.w3.org/2000/svg">
<path fill-rule="evenodd" clip-rule="evenodd" d="M12.1584 6.7087C12.4527 6.6454 12.5621 6.68626 12.5861 6.69776C12.5959 6.7183 12.6183 6.78563 12.6028 6.9445C12.5803 7.17513 12.4834 7.5015 12.2858 7.91C11.8933 8.721 11.1695 9.721 10.1953 10.6952C9.22105 11.6695 8.22109 12.3933 7.41005 12.7857C7.00155 12.9834 6.67519 13.0802 6.44455 13.1027C6.28572 13.1182 6.21839 13.0958 6.19782 13.086C6.18632 13.0621 6.14545 12.9526 6.20875 12.6583C6.28542 12.3018 6.48965 11.8219 6.83462 11.2605C7.25252 10.5805 7.84992 9.82476 8.58739 9.0873C9.32482 8.34986 10.0806 7.75243 10.7606 7.33453C11.3219 6.9896 11.8018 6.78536 12.1584 6.7087ZM0.470651 9.24673L5.25325 14.0293C5.62712 14.4032 6.13425 14.4726 6.57392 14.4297C7.01952 14.3863 7.50495 14.221 7.99079 13.9859C8.96842 13.5129 10.0873 12.6889 11.1381 11.638C12.1889 10.5872 13.0129 9.46836 13.486 8.49073C13.7211 8.0049 13.8864 7.51946 13.9298 7.07386C13.9727 6.6342 13.9033 6.12706 13.5294 5.7532L8.74679 0.970588C8.28425 0.508058 7.62552 0.508541 7.09539 0.622551C6.53605 0.742841 5.91115 1.02803 5.27989 1.41597C4.49929 1.89568 3.66272 2.56114 2.86195 3.3619C2.0612 4.16263 1.39574 4.99923 0.916027 5.77983C0.528091 6.4111 0.242904 7.036 0.122614 7.59533C0.00860073 8.12546 0.0081175 8.7842 0.470651 9.24673Z" fill="#121417"/>
</svg>
