<svg width="109" height="23" viewBox="0 0 109 23" fill="none" xmlns="http://www.w3.org/2000/svg">
<g clip-path="url(#clip0_2_159)">
<path fill-rule="evenodd" clip-rule="evenodd" d="M13.1583 10.7087C13.4527 10.6454 13.5621 10.6863 13.586 10.6978C13.5959 10.7183 13.6182 10.7857 13.6027 10.9445C13.5803 11.1752 13.4834 11.5015 13.2857 11.91C12.8933 12.721 12.1695 13.721 11.1953 14.6953C10.221 15.6695 9.22107 16.3933 8.41003 16.7857C8.00153 16.9834 7.67517 17.0802 7.44453 17.1027C7.2857 17.1182 7.21837 17.0958 7.1978 17.086C7.1863 17.0621 7.14543 16.9527 7.20873 16.6583C7.2854 16.3018 7.48963 15.8219 7.8346 15.2606C8.2525 14.5806 8.8499 13.8248 9.58737 13.0873C10.3248 12.3499 11.0806 11.7525 11.7606 11.3346C12.3219 10.9896 12.8018 10.7854 13.1583 10.7087ZM1.47063 13.2468L6.25323 18.0294C6.6271 18.4032 7.13423 18.4726 7.5739 18.4298C8.0195 18.3863 8.50493 18.221 8.99077 17.986C9.9684 17.5129 11.0873 16.6889 12.1381 15.6381C13.1889 14.5873 14.0129 13.4684 14.486 12.4908C14.721 12.0049 14.8863 11.5195 14.9298 11.0739C14.9726 10.6342 14.9032 10.1271 14.5294 9.75323L9.74677 4.97062C9.28423 4.50809 8.6255 4.50858 8.09537 4.62259C7.53603 4.74288 6.91113 5.02806 6.27987 5.416C5.49927 5.89572 4.6627 6.56118 3.86193 7.36193C3.06118 8.16267 2.39572 8.99927 1.91601 9.77987C1.52807 10.4111 1.24288 11.036 1.12259 11.5954C1.00858 12.1255 1.0081 12.7842 1.47063 13.2468Z" fill="#121417"/>
</g>
<path d="M35.672 19.25V8H32.198V5.84H41.558V8H38.138V19.25H35.672ZM41.5043 19.25V9.458H43.7183V11.636L43.5383 11.312C43.7663 10.58 44.1203 10.07 44.6003 9.782C45.0923 9.494 45.6803 9.35 46.3643 9.35H46.9403V11.438H46.0943C45.4223 11.438 44.8823 11.648 44.4743 12.068C44.0663 12.476 43.8623 13.052 43.8623 13.796V19.25H41.5043ZM47.973 19.25V9.458H50.331V19.25H47.973ZM47.973 8.36V5.84H50.331V8.36H47.973ZM52.2543 22.85V9.458H54.4683V11.402L54.2523 10.916C54.5883 10.388 55.0443 9.98 55.6203 9.692C56.1963 9.392 56.8623 9.242 57.6183 9.242C58.5423 9.242 59.3763 9.47 60.1203 9.926C60.8643 10.382 61.4523 10.994 61.8843 11.762C62.3283 12.53 62.5503 13.394 62.5503 14.354C62.5503 15.302 62.3343 16.166 61.9023 16.946C61.4703 17.726 60.8823 18.344 60.1383 18.8C59.3943 19.244 58.5483 19.466 57.6003 19.466C56.8923 19.466 56.2383 19.328 55.6383 19.052C55.0503 18.764 54.5823 18.356 54.2343 17.828L54.6123 17.36V22.85H52.2543ZM57.3303 17.306C57.8703 17.306 58.3503 17.18 58.7703 16.928C59.1903 16.676 59.5143 16.328 59.7423 15.884C59.9823 15.44 60.1023 14.93 60.1023 14.354C60.1023 13.778 59.9823 13.274 59.7423 12.842C59.5143 12.398 59.1903 12.05 58.7703 11.798C58.3503 11.534 57.8703 11.402 57.3303 11.402C56.8143 11.402 56.3463 11.528 55.9263 11.78C55.5183 12.032 55.1943 12.386 54.9543 12.842C54.7263 13.286 54.6123 13.79 54.6123 14.354C54.6123 14.93 54.7263 15.44 54.9543 15.884C55.1943 16.328 55.5183 16.676 55.9263 16.928C56.3463 17.18 56.8143 17.306 57.3303 17.306ZM66.6564 19.25V8H63.1824V5.84H72.5424V8H69.1224V19.25H66.6564ZM72.4886 19.25V9.458H74.7026V11.636L74.5226 11.312C74.7506 10.58 75.1046 10.07 75.5846 9.782C76.0766 9.494 76.6646 9.35 77.3486 9.35H77.9246V11.438H77.0786C76.4066 11.438 75.8666 11.648 75.4586 12.068C75.0506 12.476 74.8466 13.052 74.8466 13.796V19.25H72.4886ZM81.9274 19.466C81.2434 19.466 80.6494 19.352 80.1454 19.124C79.6414 18.896 79.2514 18.572 78.9754 18.152C78.6994 17.72 78.5614 17.222 78.5614 16.658C78.5614 16.118 78.6814 15.638 78.9214 15.218C79.1614 14.786 79.5334 14.426 80.0374 14.138C80.5414 13.85 81.1774 13.646 81.9454 13.526L85.1494 13.004V14.804L82.3954 15.272C81.9274 15.356 81.5794 15.506 81.3514 15.722C81.1234 15.938 81.0094 16.22 81.0094 16.568C81.0094 16.904 81.1354 17.174 81.3874 17.378C81.6514 17.57 81.9754 17.666 82.3594 17.666C82.8514 17.666 83.2834 17.564 83.6554 17.36C84.0394 17.144 84.3334 16.85 84.5374 16.478C84.7534 16.106 84.8614 15.698 84.8614 15.254V12.734C84.8614 12.314 84.6934 11.966 84.3574 11.69C84.0334 11.402 83.6014 11.258 83.0614 11.258C82.5574 11.258 82.1074 11.396 81.7114 11.672C81.3274 11.936 81.0454 12.29 80.8654 12.734L78.9394 11.798C79.1314 11.282 79.4314 10.838 79.8394 10.466C80.2594 10.082 80.7514 9.782 81.3154 9.566C81.8794 9.35 82.4914 9.242 83.1514 9.242C83.9554 9.242 84.6634 9.392 85.2754 9.692C85.8874 9.98 86.3614 10.388 86.6974 10.916C87.0454 11.432 87.2194 12.038 87.2194 12.734V19.25H84.9874V17.576L85.4914 17.54C85.2394 17.96 84.9394 18.314 84.5914 18.602C84.2434 18.878 83.8474 19.094 83.4034 19.25C82.9594 19.394 82.4674 19.466 81.9274 19.466ZM93.8453 19.466C92.8733 19.466 91.9973 19.244 91.2173 18.8C90.4493 18.344 89.8433 17.732 89.3993 16.964C88.9553 16.184 88.7333 15.308 88.7333 14.336C88.7333 13.364 88.9553 12.494 89.3993 11.726C89.8433 10.958 90.4493 10.352 91.2173 9.908C91.9973 9.464 92.8733 9.242 93.8453 9.242C94.5413 9.242 95.1893 9.368 95.7893 9.62C96.3893 9.86 96.9053 10.196 97.3373 10.628C97.7813 11.048 98.0993 11.552 98.2913 12.14L96.2213 13.04C96.0413 12.548 95.7353 12.152 95.3033 11.852C94.8833 11.552 94.3973 11.402 93.8453 11.402C93.3293 11.402 92.8673 11.528 92.4593 11.78C92.0633 12.032 91.7513 12.38 91.5233 12.824C91.2953 13.268 91.1813 13.778 91.1813 14.354C91.1813 14.93 91.2953 15.44 91.5233 15.884C91.7513 16.328 92.0633 16.676 92.4593 16.928C92.8673 17.18 93.3293 17.306 93.8453 17.306C94.4093 17.306 94.9013 17.156 95.3213 16.856C95.7413 16.556 96.0413 16.154 96.2213 15.65L98.2913 16.586C98.0993 17.138 97.7873 17.636 97.3553 18.08C96.9233 18.512 96.4073 18.854 95.8073 19.106C95.2073 19.346 94.5533 19.466 93.8453 19.466ZM99.8168 19.25V5.624H102.175V14.552L101.275 14.282L105.883 9.458H108.817L105.199 13.4L108.889 19.25H106.189L102.985 14.174L104.389 13.886L101.437 17.054L102.175 15.614V19.25H99.8168Z" fill="#121417"/>
<defs>
<clipPath id="clip0_2_159">
<rect width="16" height="16" fill="white" transform="translate(0 3.5)"/>
</clipPath>
</defs>
</svg>
